<svg xmlns="http://www.w3.org/2000/svg" viewBox="0 8.859999656677246 31.639999389648438 37.0099983215332" data-asc="0.9052734375" width="31.639999389648438" height="37.0099983215332"><defs/><g><g fill="#000000"><g transform="translate(0, 0)"><path d="M26.90 32.71L31.64 33.91Q30.15 39.75 26.28 42.81Q22.41 45.87 16.82 45.87Q11.04 45.87 7.41 43.52Q3.78 41.16 1.89 36.69Q0 32.23 0 27.10Q0 21.51 2.14 17.35Q4.27 13.18 8.22 11.02Q12.16 8.86 16.89 8.86Q22.27 8.86 25.93 11.60Q29.59 14.33 31.03 19.29L26.37 20.39Q25.12 16.48 22.75 14.70Q20.39 12.92 16.80 12.92Q12.67 12.92 9.90 14.89Q7.13 16.87 6.01 20.20Q4.88 23.54 4.88 27.08Q4.88 31.64 6.21 35.05Q7.54 38.45 10.35 40.14Q13.16 41.82 16.43 41.82Q20.41 41.82 23.17 39.53Q25.93 37.23 26.90 32.71Z"/></g></g></g></svg>